<?xml version="1.0" standalone="no"?>
<!DOCTYPE svg PUBLIC "-//W3C//DTD SVG 20010904//EN"
 "http://www.w3.org/TR/2001/REC-SVG-20010904/DTD/svg10.dtd">
<svg version="1.0" xmlns="http://www.w3.org/2000/svg"
 width="200.000000pt" height="200.000000pt" viewBox="0 0 200.000000 200.000000"
 preserveAspectRatio="xMidYMid meet">
<metadata>
Created by potrace 1.16, written by Peter Selinger 2001-2019
</metadata>
<g transform="translate(0.000000,200.000000) scale(0.100000,-0.100000)"
fill="#000000" stroke="none">
<path d="M559 1411 c-63 -64 -16 -171 76 -171 33 0 82 44 90 81 21 95 -97 159
-166 90z m124 -23 c23 -27 22 -73 -3 -98 -40 -40 -112 -16 -126 42 -5 22 0 34
25 59 25 25 37 30 59 25 15 -4 35 -16 45 -28z"/>
<path d="M1126 1289 c-41 -49 -37 -74 5 -33 l29 28 0 -52 0 -52 -81 0 c-59 0
-100 -7 -155 -25 -58 -19 -95 -25 -167 -25 -101 0 -185 -20 -262 -63 l-45 -26
0 61 0 61 21 -27 c24 -30 56 -37 40 -8 -6 9 -24 33 -41 52 l-30 35 -40 -45
c-22 -25 -40 -48 -40 -52 0 -16 26 -7 38 12 22 35 32 22 32 -43 0 -59 -2 -65
-35 -97 -30 -29 -46 -60 -30 -60 3 0 23 18 45 40 118 118 288 163 481 126 100
-19 109 -19 109 -7 0 6 -21 16 -47 23 l-48 14 67 18 c88 24 175 18 245 -17 28
-15 54 -31 58 -37 9 -14 25 -13 25 3 0 13 -47 48 -92 68 -26 11 -28 17 -28 68
l1 56 22 -27 c23 -28 47 -37 47 -18 0 12 -69 90 -80 90 -5 0 -24 -19 -44 -41z"/>
</g>
</svg>
